<?xml version="1.0" standalone="no"?><svg xmlns="http://www.w3.org/2000/svg" viewBox="0 0 1440 320"><path fill="#2485D0" fill-opacity="1" d="M0,32L24,48C48,64,96,96,144,96C192,96,240,64,288,90.7C336,117,384,203,432,240C480,277,528,267,576,224C624,181,672,107,720,106.7C768,107,816,181,864,192C912,203,960,149,1008,149.3C1056,149,1104,203,1152,202.7C1200,203,1248,149,1296,128C1344,107,1392,117,1416,122.7L1440,128L1440,0L1416,0C1392,0,1344,0,1296,0C1248,0,1200,0,1152,0C1104,0,1056,0,1008,0C960,0,912,0,864,0C816,0,768,0,720,0C672,0,624,0,576,0C528,0,480,0,432,0C384,0,336,0,288,0C240,0,192,0,144,0C96,0,48,0,24,0L0,0Z"></path></svg>